<svg xmlns="http://www.w3.org/2000/svg" width="330.06744384765625" height="321.72113037109375" viewBox="-166.0838623046875 -149.0111541748047 330.06744384765625 321.72113037109375"><title>Neo4j Graph Visualization</title><desc>Created using Neo4j (http://www.neo4j.com/)</desc><g class="layer relationships"><g class="relationship" transform="translate(-12.126394112019023 143.7099748878699) rotate(274.8278553308054)"><path class="b-outline" fill="#A5ABB6" stroke="none" d="M 25 0.5 L 45.760476196855876 0.5 L 45.760476196855876 -0.5 L 25 -0.5 Z M 91.32297619685588 0.5 L 112.08345239371175 0.5 L 112.08345239371175 3.5 L 119.08345239371175 0 L 112.08345239371175 -3.5 L 112.08345239371175 -0.5 L 91.32297619685588 -0.5 Z"/><text text-anchor="middle" pointer-events="none" font-size="8px" fill="#000000" x="68.54172619685588" y="3" font-family="Helvetica Neue, Helvetica, Arial, sans-serif">ACTED_IN</text></g><g class="relationship" transform="translate(134.98357649503018 51.79414391138318) rotate(200.94118471809452)"><path class="b-outline" fill="#A5ABB6" stroke="none" d="M 25 0.5 L 45.98380354484287 0.5 L 45.98380354484287 -0.5 L 25 -0.5 Z M 91.54630354484287 0.5 L 112.53010708968574 0.5 L 112.53010708968574 3.5 L 119.53010708968574 0 L 112.53010708968574 -3.5 L 112.53010708968574 -0.5 L 91.54630354484287 -0.5 Z"/><text text-anchor="middle" pointer-events="none" font-size="8px" fill="#000000" x="68.76505354484287" y="3" transform="rotate(180 68.76505354484287 0)" font-family="Helvetica Neue, Helvetica, Arial, sans-serif">ACTED_IN</text></g><g class="relationship" transform="translate(90.34484721078077 -112.64477637692646) rotate(488.69660486075435)"><path class="b-outline" fill="#A5ABB6" stroke="none" d="M 25 0.5 L 45.30785930198246 0.5 L 45.30785930198246 -0.5 L 25 -0.5 Z M 92.19848430198246 0.5 L 112.50634360396492 0.5 L 112.50634360396492 3.5 L 119.50634360396492 0 L 112.50634360396492 -3.5 L 112.50634360396492 -0.5 L 92.19848430198246 -0.5 Z"/><text text-anchor="middle" pointer-events="none" font-size="8px" fill="#000000" x="68.75317180198246" y="3" transform="rotate(180 68.75317180198246 0)" font-family="Helvetica Neue, Helvetica, Arial, sans-serif">DIRECTED</text></g><g class="relationship" transform="translate(-80.2167804880313 -120.01115127456978) rotate(416.2711477280343)"><path class="b-outline" fill="#A5ABB6" stroke="none" d="M 25 0.5 L 45.95185114497711 0.5 L 45.95185114497711 -0.5 L 25 -0.5 Z M 91.51435114497711 0.5 L 112.46620228995423 0.5 L 112.46620228995423 3.5 L 119.46620228995423 0 L 112.46620228995423 -3.5 L 112.46620228995423 -0.5 L 91.51435114497711 -0.5 Z"/><text text-anchor="middle" pointer-events="none" font-size="8px" fill="#000000" x="68.73310114497711" y="3" font-family="Helvetica Neue, Helvetica, Arial, sans-serif">ACTED_IN</text></g><g class="relationship" transform="translate(-137.08386820646865 44.34823990975981) rotate(342.12512122182306)"><path class="b-outline" fill="#A5ABB6" stroke="none" d="M 25 0.5 L 45.73707548478184 0.5 L 45.73707548478184 -0.5 L 25 -0.5 Z M 91.29957548478184 0.5 L 112.03665096956368 0.5 L 112.03665096956368 3.5 L 119.03665096956368 0 L 112.03665096956368 -3.5 L 112.03665096956368 -0.5 L 91.29957548478184 -0.5 Z"/><text text-anchor="middle" pointer-events="none" font-size="8px" fill="#000000" x="68.51832548478184" y="3" font-family="Helvetica Neue, Helvetica, Arial, sans-serif">ACTED_IN</text></g></g><g class="layer nodes"><g class="node" aria-label="graph-node370" transform="translate(0,0.13772192953886028)"><circle class="b-outline" cx="0" cy="0" r="25" fill="#C990C0" stroke="#b261a5" stroke-width="2px"/><text class="caption" text-anchor="middle" pointer-events="none" x="0" y="-5" font-size="10px" fill="#FFFFFF" font-family="Helvetica Neue, Helvetica, Arial, sans-serif"> Capitan</text><text class="caption" text-anchor="middle" pointer-events="none" x="0" y="5" font-size="10px" fill="#FFFFFF" font-family="Helvetica Neue, Helvetica, Arial, sans-serif"> America -</text><text class="caption" text-anchor="middle" pointer-events="none" x="0" y="15" font-size="10px" fill="#FFFFFF" font-family="Helvetica Neue, Helvetica, Arial, sans-serif"> T</text></g><g class="node" aria-label="graph-node195" transform="translate(-12.126394112019023,143.7099748878699)"><circle class="b-outline" cx="0" cy="0" r="25" fill="#F79767" stroke="#f36924" stroke-width="2px"/><text class="caption" text-anchor="middle" pointer-events="none" x="0" y="0" font-size="10px" fill="#FFFFFF" font-family="Helvetica Neue, Helvetica, Arial, sans-serif"> Hugo</text><text class="caption" text-anchor="middle" pointer-events="none" x="0" y="10" font-size="10px" fill="#FFFFFF" font-family="Helvetica Neue, Helvetica, Arial, sans-serif"> Weavi…</text></g><g class="node" aria-label="graph-node371" transform="translate(134.98357649503018,51.79414391138318)"><circle class="b-outline" cx="0" cy="0" r="25" fill="#F79767" stroke="#f36924" stroke-width="2px"/><text class="caption" text-anchor="middle" pointer-events="none" x="0" y="0" font-size="10px" fill="#FFFFFF" font-family="Helvetica Neue, Helvetica, Arial, sans-serif"> Chris</text><text class="caption" text-anchor="middle" pointer-events="none" x="0" y="10" font-size="10px" fill="#FFFFFF" font-family="Helvetica Neue, Helvetica, Arial, sans-serif"> Evans</text></g><g class="node" aria-label="graph-node372" transform="translate(90.34484721078077,-112.64477637692646)"><circle class="b-outline" cx="0" cy="0" r="25" fill="#F79767" stroke="#f36924" stroke-width="2px"/><text class="caption" text-anchor="middle" pointer-events="none" x="0" y="0" font-size="10px" fill="#FFFFFF" font-family="Helvetica Neue, Helvetica, Arial, sans-serif"> Joe</text><text class="caption" text-anchor="middle" pointer-events="none" x="0" y="10" font-size="10px" fill="#FFFFFF" font-family="Helvetica Neue, Helvetica, Arial, sans-serif"> Johnst…</text></g><g class="node" aria-label="graph-node373" transform="translate(-80.2167804880313,-120.01115127456978)"><circle class="b-outline" cx="0" cy="0" r="25" fill="#F79767" stroke="#f36924" stroke-width="2px"/><text class="caption" text-anchor="middle" pointer-events="none" x="0" y="0" font-size="10px" fill="#FFFFFF" font-family="Helvetica Neue, Helvetica, Arial, sans-serif"> Samuel L.</text><text class="caption" text-anchor="middle" pointer-events="none" x="0" y="10" font-size="10px" fill="#FFFFFF" font-family="Helvetica Neue, Helvetica, Arial, sans-serif"> Jackson</text></g><g class="node" aria-label="graph-node374" transform="translate(-137.08386820646865,44.34823990975981)"><circle class="b-outline" cx="0" cy="0" r="25" fill="#F79767" stroke="#f36924" stroke-width="2px"/><text class="caption" text-anchor="middle" pointer-events="none" x="0" y="0" font-size="10px" fill="#FFFFFF" font-family="Helvetica Neue, Helvetica, Arial, sans-serif"> Hayley</text><text class="caption" text-anchor="middle" pointer-events="none" x="0" y="10" font-size="10px" fill="#FFFFFF" font-family="Helvetica Neue, Helvetica, Arial, sans-serif"> Atwell</text></g></g></svg>